<?xml version="1.0" encoding="UTF-8" standalone="no"?>
<svg
   height="17"
   viewBox="0 0 17 17"
   width="17"
   version="1.1"
   id="svg1"
   sodipodi:docname="icon.svg"
   xml:space="preserve"
   inkscape:version="1.3.2 (091e20ef0f, 2023-11-25)"
   xmlns:inkscape="http://www.inkscape.org/namespaces/inkscape"
   xmlns:sodipodi="http://sodipodi.sourceforge.net/DTD/sodipodi-0.dtd"
   xmlns="http://www.w3.org/2000/svg"
   xmlns:svg="http://www.w3.org/2000/svg"><defs
     id="defs1" /><sodipodi:namedview
     id="namedview1"
     pagecolor="#ffffff"
     bordercolor="#000000"
     borderopacity="0.25"
     inkscape:showpageshadow="2"
     inkscape:pageopacity="0.0"
     inkscape:pagecheckerboard="true"
     inkscape:deskcolor="#d1d1d1"
     showgrid="false"
     inkscape:zoom="22.627417"
     inkscape:cx="5.1928154"
     inkscape:cy="16.793786"
     inkscape:window-width="1916"
     inkscape:window-height="1049"
     inkscape:window-x="0"
     inkscape:window-y="27"
     inkscape:window-maximized="1"
     inkscape:current-layer="svg1" /><rect
     style="fill:none;stroke:#bbcaf7;stroke-width:0.245669;stroke-dasharray:0.491339, 0.245669;stroke-dashoffset:0.614173;stroke-opacity:1"
     id="rect1"
     width="14"
     height="14"
     x="0.49999967"
     y="2.1514146"
     ry="4" /><path
     d="m 5.5,1.1607656 a 4,4 0 0 0 -4,4 v 6.0000004 a 4,4 0 0 0 4,4 h 6 a 4,4 0 0 0 4,-4 V 5.1607656 a 4,4 0 0 0 -4,-4 z m -2,6 a 1,1 0 0 1 2,0 v 2 a 1,1 0 0 1 -2,0 z m 10,2 a 1,1 0 0 1 -2,0 v -2 a 1,1 0 0 1 2,0 z m -2.172,3.8280004 a 4,4 0 0 1 -5.656,0 1,1 0 0 1 1.414,-1.414 2,2 0 0 0 2.8279996,0 1,1 0 0 1 1.4140004,1.414 z"
     fill="#8da5f3"
     id="path1"
     style="fill:#8da5f3;fill-opacity:1" /><path
     style="fill:#8da5f3;fill-opacity:1;stroke:none;stroke-width:0.457323;stroke-dasharray:none;stroke-dashoffset:0.614173;stroke-opacity:1"
     d="m 13.01863,15.77923 2.664239,-4.6e-5 0.03912,-0.743231 0.751437,-1.289191 0.0498,-2.120332 -0.982796,-0.278793 -0.456484,-0.743069 -0.612936,-0.01429 -0.349805,-0.30248 -0.645899,0.233799 -1.121495,0.248619 -0.112712,0.432997 -1.046421,0.703419 0.28518,1.065521 0.824965,1.606603 z"
     id="path3" /><path
     style="fill:#000000;fill-opacity:0;stroke:#577ceb;stroke-width:0.457323;stroke-dasharray:none;stroke-opacity:1"
     d="m 12.834789,15.58409 c -8.7e-5,-0.293919 -0.01274,-0.374094 -0.07948,-0.503823 -0.05637,-0.10957 -0.122401,-0.184983 -0.236046,-0.269598 -0.317829,-0.236639 -0.527554,-0.469498 -0.698469,-0.77551 -0.02917,-0.05222 -0.06362,-0.118675 -0.07658,-0.147684 -0.04116,-0.0922 -0.47877,-0.959034 -0.495486,-0.981496 -0.01714,-0.02303 -0.03428,-0.05951 -0.04935,-0.105039 -0.0051,-0.01548 -0.01886,-0.05105 -0.03051,-0.07906 -0.02795,-0.06714 -0.07323,-0.227387 -0.08822,-0.312133 -0.0095,-0.05365 -0.0115,-0.100353 -0.0097,-0.225227 l 0.0022,-0.157538 0.02307,-0.04904 c 0.0127,-0.02697 0.02852,-0.05907 0.03516,-0.07131 0.0066,-0.01225 0.159299,-0.164152 0.339233,-0.337566 0.416532,-0.401439 0.393186,-0.379866 0.437091,-0.403911 0.108041,-0.05917 0.171864,-0.07987 0.271309,-0.088 l 0.05801,-0.0048 v -0.05767 c 0,-0.03172 0.0021,-0.09139 0.0045,-0.132609 0.0041,-0.06628 0.0061,-0.07494 0.01746,-0.07494 0.0085,0 0.01924,-0.01262 0.03153,-0.03692 0.09402,-0.186171 0.290608,-0.301731 0.516069,-0.30336 0.163031,-0.0012 0.301594,0.05307 0.415625,0.162743 l 0.03938,0.03787 0.0047,-0.05053 c 0.01064,-0.11444 0.04717,-0.209353 0.112528,-0.292308 0.182677,-0.231879 0.538667,-0.285258 0.791512,-0.118683 0.135296,0.08913 0.226966,0.237549 0.237385,0.38433 l 0.0044,0.06294 0.02881,-0.02756 c 0.116208,-0.111198 0.260146,-0.170084 0.417095,-0.170637 0.0781,-2.76e-4 0.101505,0.0027 0.170804,0.02156 0.165798,0.04516 0.302858,0.16067 0.365591,0.308091 0.0381,0.08954 0.04229,0.126872 0.04229,0.376094 v 0.226121 l 0.04043,-0.03925 c 0.176431,-0.171223 0.454124,-0.212261 0.680374,-0.100542 0.140132,0.06919 0.231513,0.173969 0.283792,0.325385 l 0.01863,0.05395 0.0022,0.829848 c 0.0025,0.990163 -0.001,1.079607 -0.052,1.290484 -0.06264,0.25916 -0.164982,0.474119 -0.333122,0.699743 -0.05614,0.07534 -0.09847,0.137263 -0.120168,0.175816 -0.04422,0.07856 -0.05694,0.10351 -0.08245,0.161749 -0.05808,0.132547 -0.0922,0.251833 -0.114263,0.399518 -0.0118,0.07895 -0.01387,0.130215 -0.01391,0.34418 l -4.4e-5,0.251416 h -0.0633 -0.0633 v -0.24091 c 0,-0.262954 0.0078,-0.362459 0.03912,-0.502321 0.04777,-0.212974 0.145269,-0.429197 0.27056,-0.599996 0.210117,-0.286436 0.308333,-0.48811 0.365532,-0.750584 0.03805,-0.174581 0.03715,-0.150176 0.0402,-1.102238 0.002,-0.637681 6.09e-4,-0.898719 -0.0051,-0.93182 -0.01329,-0.077 -0.04995,-0.143167 -0.115314,-0.20811 -0.09139,-0.0908 -0.190677,-0.131073 -0.324247,-0.131511 -0.08562,-2.81e-4 -0.1409,0.01274 -0.221118,0.05206 -0.07145,0.03503 -0.146698,0.106247 -0.180943,0.171253 -0.03813,0.07239 -0.04438,0.111632 -0.04933,0.309821 -0.005,0.198448 -0.0072,0.207901 -0.05101,0.217531 -0.0235,0.0052 -0.05866,-0.01008 -0.06814,-0.02953 -0.0033,-0.0069 -0.0078,-0.264158 -0.0097,-0.571659 -0.0035,-0.551386 -0.0038,-0.559641 -0.01878,-0.59898 -0.04544,-0.119397 -0.141329,-0.21067 -0.270653,-0.257622 -0.04688,-0.01702 -0.06088,-0.01873 -0.153554,-0.01884 -0.09311,-1.06e-4 -0.106867,0.0016 -0.158328,0.01924 -0.130223,0.04474 -0.236739,0.150353 -0.278378,0.276007 -0.0073,0.02199 -0.01019,0.149417 -0.0131,0.583706 -0.0041,0.604764 -0.0021,0.577546 -0.04361,0.594732 -0.02494,0.0103 -0.06391,-0.0019 -0.07507,-0.02352 -0.0059,-0.01139 -0.0086,-0.211328 -0.01008,-0.736479 -0.0019,-0.675558 -0.0028,-0.723272 -0.01479,-0.759521 -0.03695,-0.11153 -0.11506,-0.202752 -0.215831,-0.252095 -0.08133,-0.03982 -0.129359,-0.0511 -0.217602,-0.0511 -0.08787,0 -0.136275,0.01129 -0.216182,0.0504 -0.09971,0.04881 -0.174379,0.131355 -0.212115,0.234499 l -0.01828,0.04995 -0.0035,0.732586 -0.0035,0.732586 -0.01705,0.01815 c -0.02325,0.02474 -0.06449,0.02515 -0.08875,8.71e-4 l -0.01726,-0.01726 -7.83e-4,-0.198991 c -4.36e-4,-0.109448 -0.003,-0.361971 -0.0055,-0.56117 l -0.0048,-0.362179 -0.01906,-0.04837 c -0.06252,-0.158664 -0.211062,-0.261921 -0.397477,-0.276295 -0.07804,-0.006 -0.156946,0.01097 -0.239932,0.05149 -0.106036,0.05184 -0.188919,0.145656 -0.219598,0.248559 -0.0076,0.02569 -0.0094,0.187225 -0.0094,0.857978 0,0.768581 -9e-4,0.831672 -0.01288,0.902767 -0.01767,0.104807 -0.04751,0.207512 -0.09229,0.317536 -0.06042,0.148485 -0.08595,0.240789 -0.101738,0.36786 -0.0064,0.05134 -0.01696,0.0718 -0.04484,0.08672 -0.01487,0.008 -0.0562,8.13e-4 -0.05032,-0.0086 0.0022,-0.0035 -0.0045,-0.01429 -0.01489,-0.0239 -0.01726,-0.016 -0.01849,-0.02062 -0.01453,-0.05454 0.01008,-0.08666 0.03108,-0.195388 0.03968,-0.205838 0.0032,-0.0039 0.0058,-0.0094 0.0058,-0.01241 -1.1e-5,-0.01871 0.01052,-0.06201 0.01587,-0.06533 0.0035,-0.0022 0.0064,-0.0089 0.0064,-0.0148 0,-0.006 0.0044,-0.0208 0.0099,-0.03299 0.0054,-0.01219 0.01567,-0.03718 0.02285,-0.05554 0.0072,-0.01835 0.01542,-0.03339 0.01832,-0.03341 0.0029,-1.4e-5 0.0053,-0.0073 0.0053,-0.01621 0,-0.0089 0.0027,-0.01919 0.0059,-0.02285 0.0032,-0.0037 0.01169,-0.02725 0.01882,-0.0524 0.0071,-0.02515 0.01596,-0.04967 0.01963,-0.0545 0.0037,-0.0049 0.0049,-0.0088 0.0027,-0.0088 -0.0022,0 7.54e-4,-0.016 0.0065,-0.03554 0.01288,-0.04339 0.02402,-0.122996 0.02876,-0.205752 l 0.0035,-0.06196 -0.02621,-0.04001 c -0.01442,-0.02201 -0.0323,-0.04671 -0.03974,-0.05489 -0.0134,-0.01474 -0.01335,-0.01509 0.0061,-0.03868 0.01086,-0.01309 0.02835,-0.03329 0.03898,-0.0449 l 0.01935,-0.02109 2.1e-5,-0.270755 c 1.2e-5,-0.148915 -0.0021,-0.38749 -0.0047,-0.530167 l -0.0047,-0.25941 -0.05686,0.0041 c -0.03127,0.0022 -0.07434,0.01019 -0.0957,0.01761 -0.03515,0.01221 -0.0585,0.0235 -0.141328,0.06828 -0.02893,0.01565 -0.305342,0.281518 -0.55418,0.533054 -0.200482,0.202657 -0.192348,0.187609 -0.195952,0.362525 -0.003,0.145861 0.0037,0.197657 0.04497,0.347031 0.02312,0.0837 0.03313,0.112045 0.07581,0.214706 0.05049,0.121465 0.06416,0.150809 0.105139,0.225734 0.02465,0.04506 0.07418,0.138906 0.110068,0.20853 0.03589,0.06962 0.08976,0.174056 0.119698,0.232075 0.02994,0.05802 0.110688,0.217488 0.179454,0.354376 0.08739,0.173985 0.144272,0.277719 0.188994,0.344691 0.153497,0.229874 0.320975,0.403839 0.561671,0.583433 0.189783,0.141606 0.297972,0.290189 0.354197,0.486447 0.01893,0.06609 0.01909,0.06844 0.02189,0.332044 l 0.0028,0.265481 h -0.0603 -0.0603 z"
     id="path2"
     sodipodi:nodetypes="cssssssssscssssscscscsscsssscssssscssscssssssccccsssssssssssssssssssssssssssscccssccscssssscsssssssssssssssssscscsssscsscssssssssssssssscccc" /></svg>
